<svg xmlns="http://www.w3.org/2000/svg" width="41.415" height="41.4" viewBox="0 0 41.415 41.4">
  <path id="user" d="M783.262,379.737h-2.427c-.117-.023-.235-.052-.353-.07-1.129-.175-2.277-.269-3.385-.535a20.721,20.721,0,0,1-15.389-23.97,20.734,20.734,0,0,1,23.191-16.63,19.767,19.767,0,0,1,10.782,4.927,20.27,20.27,0,0,1,6.752,12.009c.136.778.214,1.566.318,2.35v2.427c-.025.143-.055.285-.074.428-.1.747-.156,1.5-.3,2.24a20.7,20.7,0,0,1-16.764,16.5C784.837,379.552,784.047,379.631,783.262,379.737Zm12.593-8.809a18.246,18.246,0,1,0-27.59-.017,14.167,14.167,0,0,1,3.215-6,14.431,14.431,0,0,1,5.674-3.846,8.717,8.717,0,1,1,10.591-13.812,8.447,8.447,0,0,1,3,6.347,8.659,8.659,0,0,1-3.782,7.443,15.914,15.914,0,0,1,4.946,3.128A14.45,14.45,0,0,1,795.854,370.928Zm-13.48,6.383c.419-.034,1.173-.073,1.921-.162a17.861,17.861,0,0,0,9.265-3.957.508.508,0,0,0,.154-.394,11.775,11.775,0,0,0-23.326-.015.541.541,0,0,0,.166.424A18.436,18.436,0,0,0,782.375,377.311Zm-.345-17.195a6.285,6.285,0,1,0-6.272-6.323A6.3,6.3,0,0,0,782.029,360.117Z" transform="translate(-761.336 -338.337)" fill="#525252"/>
</svg>
